<?xml version="1.0" standalone="no"?>
<!DOCTYPE svg PUBLIC "-//W3C//DTD SVG 20010904//EN"
 "http://www.w3.org/TR/2001/REC-SVG-20010904/DTD/svg10.dtd">
<svg version="1.0" xmlns="http://www.w3.org/2000/svg"
 width="512.000000pt" height="512.000000pt" viewBox="0 0 512.000000 512.000000"
 preserveAspectRatio="xMidYMid meet">
<metadata>
Created by potrace 1.14, written by Peter Selinger 2001-2017
</metadata>
<g transform="translate(0.000000,512.000000) scale(0.100000,-0.100000)"
fill="#000000" stroke="none">
<path d="M4253 5098 c-34 -36 -29 -74 13 -120 l36 -40 -48 -49 c-27 -27 -53
-49 -59 -49 -5 0 -23 14 -39 31 -40 40 -71 47 -104 22 -49 -37 -45 -89 12
-142 l26 -25 -52 -53 -52 -53 -38 37 c-44 43 -87 48 -120 15 -32 -31 -28 -76
10 -115 18 -18 32 -38 32 -43 0 -6 -13 -23 -30 -39 -23 -22 -41 -62 -80 -185
l-51 -156 -337 -337 -338 -338 -34 32 c-95 85 -222 155 -356 195 -112 33 -297
41 -416 18 -187 -36 -358 -130 -483 -266 -79 -86 -100 -115 -162 -228 -100
-183 -122 -219 -164 -260 -25 -25 -68 -57 -95 -69 -27 -13 -157 -52 -290 -87
-331 -87 -419 -122 -571 -230 -211 -151 -391 -427 -438 -674 -3 -14 -7 -36
-11 -50 -13 -53 -11 -296 2 -375 28 -158 98 -327 195 -465 65 -93 686 -716
779 -782 199 -141 393 -207 630 -213 146 -4 256 10 370 47 377 121 646 407
754 798 46 167 96 352 100 376 9 40 36 107 57 137 50 72 90 101 309 220 253
138 411 330 481 583 29 105 35 309 12 409 -18 84 -69 220 -94 257 -11 14 -19
29 -19 32 0 7 -39 66 -50 76 -3 3 -22 25 -42 50 l-37 46 337 337 337 336 150
49 c117 39 159 57 191 85 l41 36 34 -34 c44 -44 81 -51 114 -22 41 37 40 72
-5 121 l-39 42 52 52 53 52 28 -29 c53 -55 108 -58 142 -7 21 34 13 65 -30
109 l-34 35 53 52 53 52 38 -36 c48 -45 92 -49 123 -10 30 38 26 68 -16 114
l-36 41 31 32 c44 45 50 85 19 123 -36 43 -43 62 -56 139 -18 110 -39 160 -87
214 -62 69 -120 100 -217 117 -118 20 -120 21 -162 54 -49 39 -76 38 -125 -7
l-41 -36 -33 32 c-45 43 -93 51 -123 19z"/>
</g>
</svg>
